<?xml version="1.0" encoding="utf-8"?>
<!-- Generator: Adobe Illustrator 26.5.0, SVG Export Plug-In . SVG Version: 6.00 Build 0)  -->
<svg version="1.1" id="Layer_1" xmlns="http://www.w3.org/2000/svg" xmlns:xlink="http://www.w3.org/1999/xlink" x="0px" y="0px"
	 viewBox="0 0 91 74" style="enable-background:new 0 0 91 74;" xml:space="preserve">
<style type="text/css">
	.st0{fill:#faf9f6;}
</style>
<g>
	<path class="st0" d="M79.5,23.5C79.5,23.5,79.5,23.5,79.5,23.5c-1.4-2-2.8-3.7-4.2-5.4c1.3-2.8,1.4-5.9,0.5-8.8
		c-1-3-3.1-5.4-5.9-6.7c-3.8-1.8-8.2-1.2-11.5,1.1C53.2,1.1,48.1,0,42.9,0.4c-13.3,1-23.7,11.9-29.3,22.2
		C4.9,25.3,1.9,32.5,1.2,34.7c0,0,0,0.1,0,0.1C-1.2,44,2,52.7,9.1,57c5.5,3.3,12,3,17.2-0.8c3,1.6,5.9,2.7,8.6,3.3
		c-0.1,1.2-0.4,2.7-1,4.1c-0.8,2-1.9,3.2-3.3,3.6c-1.6,0.5-2.5,2.2-2,3.8c0.5,1.6,2.2,2.5,3.8,2c3.8-1.2,6-4.3,7.1-7.1
		c0.8-2,1.2-4,1.4-5.8c1.9-0.1,3.7-0.4,5.3-1.1c4-1.5,7.2-4.8,8.5-8.7c0.5-1.4,0-3.1-1.3-3.8c-1.7-0.9-3.7-0.1-4.3,1.7
		c-0.6,1.8-2.2,4.1-5.1,5.2c-3.9,1.5-9.2,0.5-15.5-2.8h2.2c2.6,0,4.9-1.9,5.2-4.5c0.3-3-2.1-5.5-5-5.5l-8.8,0
		c-2.6,0-4.9,1.9-5.2,4.5c-0.3,3,2.1,5.5,5,5.5h1.7c-3.5,3-7.8,3.5-11.6,1.2C8.6,49.7,5,44.4,6.9,36.5c0.6-1.7,2.9-6.9,9.3-8.4
		c0.9-0.2,1.6-0.8,2-1.5C22.9,17.4,32,7.2,43.3,6.4c3.7-0.3,7.3,0.4,11,2.1c0,0,0,0,0,0.1c-0.6,1.2-0.2,2.7,0.7,3.5
		c0.2,0.2,0.5,0.4,0.7,0.5c1.4,0.7,3,0.2,3.8-1.1c0.1-0.1,0.1-0.2,0.2-0.3c1-2,2.8-3.3,4.8-3.5c0.9-0.1,1.9,0,2.8,0.5
		c1.3,0.6,2.3,1.8,2.8,3.2c0.2,0.5,0.3,1,0.3,1.5c0.1,1-0.1,2.1-0.6,3.1c0,0.1-0.1,0.1-0.1,0.2c-0.1,0.2-0.2,0.3-0.4,0.5
		c-0.9,1.2-0.8,2.9,0.2,4.1c1.7,1.9,3.3,4,5,6.3c3.8,5.6,10.7,22,10,43.7c-0.1,1.6,1.2,3,2.9,3.1h0.1c1.6,0,2.9-1.3,3-2.9
		C91.4,47.5,83.7,29.7,79.5,23.5z"/>
	<circle class="st0" cx="41.5" cy="30.2" r="5.5"/>
</g>
</svg>
