<svg width="48" height="48" viewBox="0 0 48 48" fill="none" xmlns="http://www.w3.org/2000/svg">
<path d="M24.07 16.73C24.86 16.73 25.49 16.09 25.49 15.31C25.49 14.53 24.84 13.89 24.06 13.89C23.28 13.89 22.65 14.53 22.65 15.32C22.65 16.11 23.28 16.73 24.07 16.73Z" fill="#052B15"/>
<path d="M18.15 36.51C18.15 35.63 18.15 34.73 18.15 33.82C17.23 33.82 16.34 33.82 15.47 33.82C16.37 34.72 17.26 35.62 18.15 36.51Z" fill="#052B15"/>
<path d="M24 0C10.75 0 0 10.75 0 24C0 37.25 10.75 48 24 48C37.25 48 48 37.25 48 24C48 10.75 37.25 0 24 0ZM36.41 36.94C36.41 38.52 35.46 39.75 33.98 40.09C33.68 40.16 33.35 40.18 33.04 40.18C28.65 40.19 24.27 40.17 19.88 40.19C19.12 40.19 18.54 39.97 18 39.41C16.11 37.45 14.16 35.54 12.23 33.62C11.93 33.33 11.8 33 11.8 32.58C11.8 25.39 11.8 18.21 11.8 11.02C11.8 9.45 12.83 8.23 14.37 7.91C14.42 7.9 14.47 7.87 14.51 7.86C20.91 7.86 27.31 7.86 33.7 7.86C34.07 7.99 34.48 8.07 34.81 8.27C35.87 8.88 36.41 9.82 36.41 11.05C36.42 13.59 36.41 16.12 36.41 18.66C36.41 24.76 36.42 30.85 36.41 36.94Z" fill="#052B15"/>
<path d="M33.1 9.95C27.1 9.95 21.11 9.95 15.11 9.95C14.27 9.95 13.88 10.34 13.88 11.19C13.88 17.91 13.88 24.63 13.88 31.36C13.88 31.47 13.89 31.58 13.9 31.72C14.05 31.72 14.18 31.72 14.3 31.72C15.9 31.72 17.5 31.72 19.1 31.72C19.87 31.72 20.26 32.12 20.27 32.89C20.27 34.5 20.27 36.11 20.27 37.72C20.27 37.83 20.27 37.95 20.27 38.11C20.42 38.11 20.53 38.11 20.63 38.11C24.8 38.11 28.96 38.11 33.13 38.11C33.95 38.11 34.35 37.71 34.35 36.89C34.35 28.33 34.35 19.76 34.35 11.2C34.33 10.34 33.94 9.95 33.1 9.95ZM24.06 11.8C25.99 11.8 27.57 13.39 27.57 15.32C27.57 17.25 25.98 18.82 24.04 18.81C22.1 18.8 20.54 17.23 20.55 15.28C20.57 13.37 22.14 11.8 24.06 11.8ZM18.79 22.46C18.82 21.54 19.25 20.85 20.07 20.44C20.63 20.16 21.21 19.9 21.8 19.67C22.02 19.58 22.27 19.58 22.51 19.57C23.03 19.56 23.54 19.57 24.06 19.57C24.12 19.57 24.19 19.57 24.25 19.57C26.17 19.57 26.17 19.57 27.9 20.38C28.81 20.8 29.28 21.51 29.32 22.51C29.33 22.96 29.33 23.41 29.32 23.87C29.3 24.52 28.86 24.98 28.27 24.97C27.68 24.96 27.25 24.5 27.24 23.85C27.23 23.46 27.23 23.07 27.24 22.68C27.25 22.44 27.16 22.3 26.94 22.23C26.93 22.23 26.92 22.22 26.91 22.22C26.09 21.74 25.22 21.57 24.28 21.66C24.1 21.68 23.92 21.68 23.74 21.66C22.79 21.54 21.94 21.81 21.12 22.25C20.95 22.34 20.87 22.44 20.87 22.63C20.88 23.04 20.88 23.45 20.87 23.86C20.86 24.5 20.41 24.97 19.82 24.97C19.22 24.97 18.8 24.5 18.79 23.85C18.79 23.39 18.78 22.92 18.79 22.46ZM29.92 35.29C28.82 35.3 27.71 35.29 26.61 35.29C25.47 35.29 24.34 35.3 23.2 35.29C22.68 35.28 22.29 34.9 22.22 34.39C22.15 33.93 22.44 33.44 22.89 33.29C23.07 33.23 23.28 33.21 23.48 33.21C25.36 33.2 27.24 33.21 29.12 33.21C29.4 33.21 29.69 33.2 29.97 33.22C30.54 33.25 30.95 33.63 31 34.14C31.06 34.79 30.61 35.28 29.92 35.29ZM30.17 29.93C30.03 29.96 29.88 29.96 29.73 29.96C25.96 29.96 22.18 29.96 18.41 29.96C18.34 29.96 18.26 29.96 18.19 29.96C17.56 29.93 17.13 29.48 17.15 28.89C17.16 28.31 17.6 27.88 18.22 27.88C20.19 27.87 22.15 27.88 24.12 27.88C26.05 27.88 27.99 27.88 29.92 27.88C30.53 27.88 30.97 28.27 31.01 28.83C31.03 29.38 30.71 29.82 30.17 29.93Z" fill="#052B15"/>
</svg>
